<mxfile host="app.diagrams.net" modified="2023-10-17T04:35:29.287Z" agent="Mozilla/5.0 (Windows NT 10.0; Win64; x64) AppleWebKit/537.36 (KHTML, like Gecko) Chrome/118.0.0.0 Safari/537.36 Edg/118.0.2088.46" etag="StsIKxD-N4cri4tQsVYS" version="22.0.4" type="github">
  <diagram name="Page-1" id="HCEL8bmxSWL_aNs0MRLH">
    <mxGraphModel dx="906" dy="571" grid="1" gridSize="10" guides="1" tooltips="1" connect="1" arrows="1" fold="1" page="1" pageScale="1" pageWidth="850" pageHeight="1100" math="0" shadow="0">
      <root>
        <mxCell id="0" />
        <mxCell id="1" parent="0" />
        <mxCell id="KF1NCX-hPgVoXo7IXDX4-3" value="" style="edgeStyle=orthogonalEdgeStyle;rounded=0;orthogonalLoop=1;jettySize=auto;html=1;" edge="1" parent="1" source="KF1NCX-hPgVoXo7IXDX4-1" target="KF1NCX-hPgVoXo7IXDX4-2">
          <mxGeometry relative="1" as="geometry" />
        </mxCell>
        <mxCell id="KF1NCX-hPgVoXo7IXDX4-1" value="START" style="strokeWidth=2;html=1;shape=mxgraph.flowchart.terminator;whiteSpace=wrap;" vertex="1" parent="1">
          <mxGeometry x="370" y="50" width="100" height="60" as="geometry" />
        </mxCell>
        <mxCell id="KF1NCX-hPgVoXo7IXDX4-5" value="" style="edgeStyle=orthogonalEdgeStyle;rounded=0;orthogonalLoop=1;jettySize=auto;html=1;" edge="1" parent="1" source="KF1NCX-hPgVoXo7IXDX4-2" target="KF1NCX-hPgVoXo7IXDX4-4">
          <mxGeometry relative="1" as="geometry" />
        </mxCell>
        <mxCell id="KF1NCX-hPgVoXo7IXDX4-2" value="Luas Segitiga&lt;br&gt;a&lt;br&gt;t" style="shape=parallelogram;perimeter=parallelogramPerimeter;whiteSpace=wrap;html=1;fixedSize=1;strokeWidth=2;" vertex="1" parent="1">
          <mxGeometry x="360" y="160" width="120" height="80" as="geometry" />
        </mxCell>
        <mxCell id="KF1NCX-hPgVoXo7IXDX4-7" value="" style="edgeStyle=orthogonalEdgeStyle;rounded=0;orthogonalLoop=1;jettySize=auto;html=1;" edge="1" parent="1" source="KF1NCX-hPgVoXo7IXDX4-4" target="KF1NCX-hPgVoXo7IXDX4-6">
          <mxGeometry relative="1" as="geometry" />
        </mxCell>
        <mxCell id="KF1NCX-hPgVoXo7IXDX4-4" value="Luas Segitiga&lt;br&gt;= 1/2*a*t" style="rounded=1;whiteSpace=wrap;html=1;absoluteArcSize=1;arcSize=14;strokeWidth=2;" vertex="1" parent="1">
          <mxGeometry x="370" y="290" width="100" height="100" as="geometry" />
        </mxCell>
        <mxCell id="KF1NCX-hPgVoXo7IXDX4-9" value="" style="edgeStyle=orthogonalEdgeStyle;rounded=0;orthogonalLoop=1;jettySize=auto;html=1;" edge="1" parent="1" source="KF1NCX-hPgVoXo7IXDX4-6" target="KF1NCX-hPgVoXo7IXDX4-8">
          <mxGeometry relative="1" as="geometry" />
        </mxCell>
        <mxCell id="KF1NCX-hPgVoXo7IXDX4-6" value="Luas Segitiga" style="shape=parallelogram;perimeter=parallelogramPerimeter;whiteSpace=wrap;html=1;fixedSize=1;rounded=1;arcSize=14;strokeWidth=2;" vertex="1" parent="1">
          <mxGeometry x="360" y="450" width="120" height="60" as="geometry" />
        </mxCell>
        <mxCell id="KF1NCX-hPgVoXo7IXDX4-8" value="END" style="strokeWidth=2;html=1;shape=mxgraph.flowchart.terminator;whiteSpace=wrap;" vertex="1" parent="1">
          <mxGeometry x="370" y="550" width="100" height="60" as="geometry" />
        </mxCell>
      </root>
    </mxGraphModel>
  </diagram>
</mxfile>
